<svg width="9" height="9" viewBox="0 0 9 9" fill="none" xmlns="http://www.w3.org/2000/svg">
<path d="M0.809281 8.90209H2.0232V8.09281H0.809281V6.87889H0V8.09281C0.00026976 8.31563 0.0795793 8.50622 0.237929 8.66457C0.396278 8.82292 0.586729 8.90209 0.809281 8.90209Z" fill="white"/>
<path d="M6.87889 8.09281V8.90209H8.09281C8.31563 8.90236 8.50622 8.82318 8.66457 8.66457C8.82292 8.50595 8.90209 8.31536 8.90209 8.09281V6.87889H8.09281V8.09281H6.87889Z" fill="white"/>
<path d="M0 0.809281V2.0232H0.809281V0.809281H2.0232V0H0.809281C0.586998 0.00026976 0.396548 0.0795793 0.237929 0.237929C0.0793096 0.396278 0 0.586729 0 0.809281Z" fill="white"/>
<path d="M8.09281 0.809281V2.0232H8.90209V0.809281C8.90236 0.586998 8.82318 0.396548 8.66457 0.237929C8.50595 0.0793096 8.31536 0 8.09281 0H6.87889V0.809281H8.09281Z" fill="white"/>
<path d="M7.30339 4.87299C7.33048 5.33964 7.11673 5.78822 6.73438 6.06219L6.9662 6.51078C7.03544 6.64625 7.04447 6.80582 6.98426 6.94732C6.92706 7.08882 6.80964 7.20021 6.66513 7.24838L6.42729 7.32365C6.32825 7.35688 6.22137 7.35881 6.12119 7.32919C6.021 7.29956 5.93236 7.23981 5.86732 7.15806L5.22906 6.4054C4.96112 6.36024 4.70822 6.24584 4.49447 6.07423C4.34394 6.11939 4.19341 6.14348 4.04287 6.14348C3.77794 6.14348 3.513 6.06219 3.29022 5.90564C3.13065 5.95381 2.96808 5.97488 2.80249 5.97187C2.56465 5.97488 2.32983 5.92671 2.11005 5.83639C1.8984 5.74215 1.71754 5.59024 1.58817 5.39805C1.45879 5.20585 1.38612 4.98112 1.37847 4.74956C1.35438 4.53279 1.39051 4.31302 1.48384 4.11431C1.39653 3.88852 1.3875 3.64164 1.46276 3.41284C1.57416 3.12683 1.7849 2.88899 2.04683 2.73846C2.22144 2.22966 2.71218 1.88946 3.25108 1.92559C3.73278 1.47399 4.47038 1.42582 5.00628 1.81419C5.13272 1.78107 5.26519 1.76301 5.39766 1.76301C5.8071 1.75398 6.19548 1.93462 6.45138 2.25675C7.06555 2.41632 7.5051 2.96425 7.52919 3.60251C7.54424 3.93669 7.45392 4.26485 7.27027 4.54483C7.29135 4.65322 7.30339 4.7616 7.30339 4.87299ZM5.79807 4.44849C5.96968 4.46957 6.10516 4.59903 6.10516 4.77063C6.10516 4.85048 6.07344 4.92705 6.01698 4.98352C5.96052 5.03998 5.88394 5.07169 5.80409 5.07169H5.61442C5.51808 5.34265 5.34949 5.58049 5.1267 5.76113C5.20197 5.78822 5.28024 5.80328 5.35852 5.82435C6.90297 5.80328 6.72234 4.86095 6.72234 4.8459C6.71846 4.74347 6.69443 4.64282 6.65161 4.54969C6.6088 4.45657 6.54805 4.3728 6.47283 4.30317C6.39761 4.23354 6.3094 4.17943 6.21325 4.14392C6.1171 4.10842 6.01489 4.09222 5.91248 4.09625C5.83263 4.09625 5.75605 4.06453 5.69959 4.00807C5.64313 3.95161 5.61141 3.87503 5.61141 3.79519C5.61141 3.71534 5.64313 3.63876 5.69959 3.5823C5.75605 3.52584 5.83263 3.49412 5.91248 3.49412C6.28278 3.50316 6.63804 3.64164 6.91502 3.88551C6.93007 3.7982 6.9391 3.70788 6.9391 3.61756C6.92104 3.24424 6.75244 2.91909 6.07505 2.85587C5.69872 1.96472 4.75037 2.45847 4.75037 2.73544C4.74134 2.80469 4.8136 2.95221 4.82564 2.96124C4.90549 2.96124 4.98206 2.99296 5.03852 3.04942C5.09498 3.10588 5.1267 3.18246 5.1267 3.26231C5.1267 3.42789 4.99122 3.56337 4.82564 3.56337C4.66608 3.55735 4.51554 3.49713 4.39512 3.39477C4.25061 3.4881 4.08502 3.5453 3.91342 3.56337C3.74181 3.57842 3.60031 3.458 3.59128 3.29241C3.58582 3.2531 3.58844 3.21308 3.59896 3.17481C3.60949 3.13654 3.6277 3.10082 3.6525 3.06983C3.67729 3.03883 3.70815 3.01322 3.74317 2.99455C3.7782 2.97588 3.81666 2.96455 3.85622 2.96124C3.90439 2.95522 4.13921 2.91909 4.13921 2.72942C4.13921 2.53072 4.21448 2.34105 4.34394 2.19052C4.06696 2.11525 3.76891 2.21461 3.46784 2.57889C2.91389 2.49158 2.68809 2.56685 2.52251 3.15392C2.2365 3.29542 2.08596 3.39477 2.01973 3.69584C2.34488 3.6296 2.67906 3.6567 2.98915 3.7711C3.13969 3.8283 3.22398 3.9969 3.16678 4.15947C3.10958 4.31603 2.93496 4.3943 2.77841 4.3371C2.55863 4.24076 2.31176 4.23474 2.08596 4.31904C1.98962 4.40032 1.98962 4.56892 1.98962 4.70139C1.98962 4.92417 2.10102 5.13191 2.29069 5.25233C2.45025 5.33362 2.62788 5.37577 2.8055 5.37276C2.76035 5.29448 2.72121 5.21319 2.68809 5.1289C2.66439 5.05155 2.67161 4.96802 2.70823 4.89588C2.74485 4.82374 2.80802 4.76862 2.88445 4.7421C2.96088 4.71559 3.04462 4.71974 3.11805 4.7537C3.19148 4.78766 3.24888 4.84876 3.27817 4.92417C3.3986 5.26739 3.70568 5.50221 4.06696 5.54135C4.47942 5.52028 4.84671 5.27642 5.02735 4.90009C5.0966 4.48462 5.43078 4.44849 5.79807 4.44849ZM6.4002 6.69743L6.21354 6.30605L5.99978 6.35422L6.30085 6.73055L6.4002 6.69743ZM5.00026 4.10528C5.00287 4.02837 4.97594 3.95338 4.92499 3.89571C4.87404 3.83804 4.80293 3.80207 4.72629 3.79519C4.51253 3.78314 4.3048 3.8554 4.14524 3.9969C3.97363 4.17152 3.88331 4.41237 3.89234 4.65623C3.89234 4.73607 3.92406 4.81265 3.98052 4.86911C4.03698 4.92557 4.11356 4.95729 4.19341 4.95729C4.36501 4.95729 4.49447 4.82181 4.49447 4.65623C4.49447 4.57494 4.51554 4.49365 4.56371 4.42742C4.59984 4.39731 4.645 4.38226 4.69317 4.38226C4.85876 4.39129 5.00026 4.26786 5.00026 4.10528Z" fill="white"/>
</svg>
