<svg width="8" height="8" viewBox="0 0 8 8" fill="none" xmlns="http://www.w3.org/2000/svg">
<path d="M1.88318 3.18932C1.88318 3.43558 2.07874 3.60748 2.3419 3.60748C2.60506 3.60748 2.7982 3.43558 2.7982 3.18932C2.7982 2.94306 2.60506 2.77792 2.3419 2.77792C2.07874 2.77792 1.88318 2.94354 1.88318 3.18932ZM1.79047 4.4776C1.79047 4.762 2.02804 4.95273 2.3419 4.95273C2.65383 4.95273 2.89381 4.762 2.89381 4.4776C2.89381 4.19319 2.65383 3.99811 2.3419 3.99811C2.02804 3.99811 1.79047 4.19319 1.79047 4.4776Z" fill="white"/>
<path d="M0.965727 0.965729C0.7096 0.965729 0.463964 1.06747 0.282855 1.24858C0.101746 1.42969 0 1.67533 0 1.93146L0 5.79436C0 6.05049 0.101746 6.29613 0.282855 6.47724C0.463964 6.65835 0.7096 6.76009 0.965727 6.76009H6.76009C7.01622 6.76009 7.26185 6.65835 7.44296 6.47724C7.62407 6.29613 7.72582 6.05049 7.72582 5.79436V1.93146C7.72582 1.67533 7.62407 1.42969 7.44296 1.24858C7.26185 1.06747 7.01622 0.965729 6.76009 0.965729H0.965727ZM3.46213 4.51381C3.46213 5.01647 3.01452 5.36655 2.33561 5.36655C1.6567 5.36655 1.21923 5.01889 1.21923 4.51574C1.21923 4.05509 1.56303 3.84746 1.82619 3.79434V3.76875C1.57993 3.69439 1.33367 3.49931 1.33367 3.12606C1.33367 2.68472 1.73493 2.35976 2.34189 2.35976C2.94692 2.35976 3.34769 2.68472 3.34769 3.12606C3.34769 3.50366 3.09516 3.69681 2.85517 3.76875V3.79434C3.11833 3.84746 3.46213 4.0575 3.46213 4.51381ZM5.84361 2.41432H6.47423L5.44091 3.66204L6.51866 5.31102H5.82913L5.0184 4.04398L4.72144 4.38151V5.31102H4.1478V2.41432H4.72096V3.71081H4.74848L5.84361 2.41432Z" fill="white"/>
</svg>
